<svg id="visual" viewBox="0 0 900 600" width="900" height="600" xmlns="http://www.w3.org/2000/svg" xmlns:xlink="http://www.w3.org/1999/xlink" version="1.1"><g stroke-width="1" stroke-linejoin="bevel"><path d="M451 315L434 328L479 367Z" fill="#0b182a" stroke="#0b182a"></path><path d="M434 328L477 369L479 367Z" fill="#2b2241" stroke="#2b2241"></path><path d="M434 328L428 358L477 369Z" fill="#913141" stroke="#913141"></path><path d="M479 367L478 312L451 315Z" fill="#802b48" stroke="#802b48"></path><path d="M428 358L439 390L477 369Z" fill="#6c294d" stroke="#6c294d"></path><path d="M536 370L532 330L479 367Z" fill="#6c294d" stroke="#6c294d"></path><path d="M479 367L532 330L478 312Z" fill="#9e3c36" stroke="#9e3c36"></path><path d="M534 379L479 367L477 369Z" fill="#402549" stroke="#402549"></path><path d="M534 379L536 370L479 367Z" fill="#2b2241" stroke="#2b2241"></path><path d="M462 432L534 379L477 369Z" fill="#9e3c36" stroke="#9e3c36"></path><path d="M439 390L462 432L477 369Z" fill="#6c294d" stroke="#6c294d"></path><path d="M532 330L520 267L478 312Z" fill="#a64a29" stroke="#a64a29"></path><path d="M478 312L481 231L451 315Z" fill="#6c294d" stroke="#6c294d"></path><path d="M345 360L364 378L428 358Z" fill="#2b2241" stroke="#2b2241"></path><path d="M428 358L364 378L439 390Z" fill="#6c294d" stroke="#6c294d"></path><path d="M439 390L389 453L462 432Z" fill="#0b182a" stroke="#0b182a"></path><path d="M345 360L428 358L434 328Z" fill="#9e3c36" stroke="#9e3c36"></path><path d="M433 232L384 261L451 315Z" fill="#a64a29" stroke="#a64a29"></path><path d="M451 315L384 261L434 328Z" fill="#402549" stroke="#402549"></path><path d="M520 267L481 231L478 312Z" fill="#913141" stroke="#913141"></path><path d="M481 231L433 232L451 315Z" fill="#2b2241" stroke="#2b2241"></path><path d="M384 261L345 360L434 328Z" fill="#2b2241" stroke="#2b2241"></path><path d="M389 453L469 461L462 432Z" fill="#56274d" stroke="#56274d"></path><path d="M462 432L552 454L534 379Z" fill="#802b48" stroke="#802b48"></path><path d="M589 324L561 283L532 330Z" fill="#402549" stroke="#402549"></path><path d="M532 330L561 283L520 267Z" fill="#402549" stroke="#402549"></path><path d="M520 267L529 235L481 231Z" fill="#0b182a" stroke="#0b182a"></path><path d="M589 324L532 330L536 370Z" fill="#0b182a" stroke="#0b182a"></path><path d="M561 283L529 235L520 267Z" fill="#191e37" stroke="#191e37"></path><path d="M338 476L389 453L364 378Z" fill="#802b48" stroke="#802b48"></path><path d="M364 378L389 453L439 390Z" fill="#913141" stroke="#913141"></path><path d="M561 283L530 234L529 235Z" fill="#402549" stroke="#402549"></path><path d="M529 235L530 234L481 231Z" fill="#9e3c36" stroke="#9e3c36"></path><path d="M634 399L536 370L534 379Z" fill="#6c294d" stroke="#6c294d"></path><path d="M634 399L589 324L536 370Z" fill="#6c294d" stroke="#6c294d"></path><path d="M585 241L553 215L530 234Z" fill="#191e37" stroke="#191e37"></path><path d="M376 227L371 244L384 261Z" fill="#402549" stroke="#402549"></path><path d="M323 289L325 362L345 360Z" fill="#2b2241" stroke="#2b2241"></path><path d="M323 289L345 360L384 261Z" fill="#802b48" stroke="#802b48"></path><path d="M345 360L325 362L364 378Z" fill="#56274d" stroke="#56274d"></path><path d="M436 517L495 478L469 461Z" fill="#9e3c36" stroke="#9e3c36"></path><path d="M469 461L511 475L462 432Z" fill="#913141" stroke="#913141"></path><path d="M495 478L511 475L469 461Z" fill="#913141" stroke="#913141"></path><path d="M511 475L552 454L462 432Z" fill="#00101c" stroke="#00101c"></path><path d="M433 232L376 227L384 261Z" fill="#913141" stroke="#913141"></path><path d="M371 244L323 289L384 261Z" fill="#9e3c36" stroke="#9e3c36"></path><path d="M372 224L376 227L429 185Z" fill="#0b182a" stroke="#0b182a"></path><path d="M289 272L323 289L371 244Z" fill="#402549" stroke="#402549"></path><path d="M429 185L376 227L433 232Z" fill="#00101c" stroke="#00101c"></path><path d="M376 227L372 224L371 244Z" fill="#00101c" stroke="#00101c"></path><path d="M429 185L433 232L481 231Z" fill="#6c294d" stroke="#6c294d"></path><path d="M642 350L610 316L589 324Z" fill="#913141" stroke="#913141"></path><path d="M589 324L610 316L561 283Z" fill="#191e37" stroke="#191e37"></path><path d="M585 241L530 234L561 283Z" fill="#191e37" stroke="#191e37"></path><path d="M530 234L527 145L481 231Z" fill="#191e37" stroke="#191e37"></path><path d="M425 171L429 185L509 124Z" fill="#6c294d" stroke="#6c294d"></path><path d="M633 283L585 241L561 283Z" fill="#a64a29" stroke="#a64a29"></path><path d="M382 541L424 506L389 453Z" fill="#402549" stroke="#402549"></path><path d="M389 453L424 506L469 461Z" fill="#00101c" stroke="#00101c"></path><path d="M495 478L541 494L511 475Z" fill="#9e3c36" stroke="#9e3c36"></path><path d="M511 475L541 494L552 454Z" fill="#2b2241" stroke="#2b2241"></path><path d="M552 454L612 436L534 379Z" fill="#802b48" stroke="#802b48"></path><path d="M493 558L541 494L495 478Z" fill="#2b2241" stroke="#2b2241"></path><path d="M585 241L572 215L553 215Z" fill="#913141" stroke="#913141"></path><path d="M527 145L429 185L481 231Z" fill="#402549" stroke="#402549"></path><path d="M424 506L436 517L469 461Z" fill="#802b48" stroke="#802b48"></path><path d="M527 145L530 234L553 215Z" fill="#0b182a" stroke="#0b182a"></path><path d="M429 185L370 171L372 224Z" fill="#a64a29" stroke="#a64a29"></path><path d="M585 486L612 436L552 454Z" fill="#00101c" stroke="#00101c"></path><path d="M272 437L338 476L364 378Z" fill="#0b182a" stroke="#0b182a"></path><path d="M424 506L382 541L436 517Z" fill="#802b48" stroke="#802b48"></path><path d="M634 399L642 350L589 324Z" fill="#0b182a" stroke="#0b182a"></path><path d="M610 316L633 283L561 283Z" fill="#9e3c36" stroke="#9e3c36"></path><path d="M643 215L588 172L572 215Z" fill="#802b48" stroke="#802b48"></path><path d="M612 436L634 399L534 379Z" fill="#00101c" stroke="#00101c"></path><path d="M642 350L633 283L610 316Z" fill="#2b2241" stroke="#2b2241"></path><path d="M311 185L289 272L371 244Z" fill="#6c294d" stroke="#6c294d"></path><path d="M323 289L264 317L325 362Z" fill="#9e3c36" stroke="#9e3c36"></path><path d="M325 362L272 437L364 378Z" fill="#56274d" stroke="#56274d"></path><path d="M275 261L289 272L311 185Z" fill="#2b2241" stroke="#2b2241"></path><path d="M578 523L585 486L541 494Z" fill="#191e37" stroke="#191e37"></path><path d="M541 494L585 486L552 454Z" fill="#191e37" stroke="#191e37"></path><path d="M681 465L671 388L634 399Z" fill="#00101c" stroke="#00101c"></path><path d="M425 171L370 171L429 185Z" fill="#191e37" stroke="#191e37"></path><path d="M289 272L264 317L323 289Z" fill="#2b2241" stroke="#2b2241"></path><path d="M311 185L371 244L372 224Z" fill="#6c294d" stroke="#6c294d"></path><path d="M289 272L275 261L264 317Z" fill="#191e37" stroke="#191e37"></path><path d="M585 486L620 476L612 436Z" fill="#6c294d" stroke="#6c294d"></path><path d="M228 376L272 437L325 362Z" fill="#56274d" stroke="#56274d"></path><path d="M588 172L553 215L572 215Z" fill="#191e37" stroke="#191e37"></path><path d="M588 172L527 145L553 215Z" fill="#802b48" stroke="#802b48"></path><path d="M425 171L422 130L370 171Z" fill="#9e3c36" stroke="#9e3c36"></path><path d="M348 536L382 541L338 476Z" fill="#0b182a" stroke="#0b182a"></path><path d="M338 476L382 541L389 453Z" fill="#6c294d" stroke="#6c294d"></path><path d="M558 578L578 523L541 494Z" fill="#0b182a" stroke="#0b182a"></path><path d="M370 171L325 180L372 224Z" fill="#9e3c36" stroke="#9e3c36"></path><path d="M643 215L572 215L585 241Z" fill="#a64a29" stroke="#a64a29"></path><path d="M493 558L495 478L436 517Z" fill="#913141" stroke="#913141"></path><path d="M585 486L610 532L620 476Z" fill="#9e3c36" stroke="#9e3c36"></path><path d="M634 399L671 388L642 350Z" fill="#9e3c36" stroke="#9e3c36"></path><path d="M642 350L681 271L633 283Z" fill="#9e3c36" stroke="#9e3c36"></path><path d="M681 465L634 399L612 436Z" fill="#2b2241" stroke="#2b2241"></path><path d="M681 271L643 229L633 283Z" fill="#191e37" stroke="#191e37"></path><path d="M633 283L643 229L585 241Z" fill="#56274d" stroke="#56274d"></path><path d="M424 600L493 558L436 517Z" fill="#0b182a" stroke="#0b182a"></path><path d="M509 124L422 130L425 171Z" fill="#a64a29" stroke="#a64a29"></path><path d="M370 171L370 115L325 180Z" fill="#56274d" stroke="#56274d"></path><path d="M260 160L311 185L273 129Z" fill="#2b2241" stroke="#2b2241"></path><path d="M325 180L311 185L372 224Z" fill="#0b182a" stroke="#0b182a"></path><path d="M208 430L266 449L272 437Z" fill="#913141" stroke="#913141"></path><path d="M272 437L279 471L338 476Z" fill="#402549" stroke="#402549"></path><path d="M266 449L279 471L272 437Z" fill="#402549" stroke="#402549"></path><path d="M194 282L238 349L264 317Z" fill="#a64a29" stroke="#a64a29"></path><path d="M264 317L238 349L325 362Z" fill="#191e37" stroke="#191e37"></path><path d="M265 498L348 536L338 476Z" fill="#802b48" stroke="#802b48"></path><path d="M382 541L424 600L436 517Z" fill="#00101c" stroke="#00101c"></path><path d="M262 229L261 241L275 261Z" fill="#402549" stroke="#402549"></path><path d="M275 261L200 264L264 317Z" fill="#0b182a" stroke="#0b182a"></path><path d="M685 230L643 215L643 229Z" fill="#402549" stroke="#402549"></path><path d="M643 229L643 215L585 241Z" fill="#6c294d" stroke="#6c294d"></path><path d="M566 83L509 124L527 145Z" fill="#191e37" stroke="#191e37"></path><path d="M527 145L509 124L429 185Z" fill="#402549" stroke="#402549"></path><path d="M311 185L262 229L275 261Z" fill="#191e37" stroke="#191e37"></path><path d="M208 385L228 376L238 349Z" fill="#913141" stroke="#913141"></path><path d="M705 284L681 271L642 350Z" fill="#802b48" stroke="#802b48"></path><path d="M208 385L238 349L153 326Z" fill="#2b2241" stroke="#2b2241"></path><path d="M238 349L228 376L325 362Z" fill="#802b48" stroke="#802b48"></path><path d="M339 556L375 567L348 536Z" fill="#56274d" stroke="#56274d"></path><path d="M348 536L375 567L382 541Z" fill="#2b2241" stroke="#2b2241"></path><path d="M558 578L610 532L578 523Z" fill="#9e3c36" stroke="#9e3c36"></path><path d="M578 523L610 532L585 486Z" fill="#2b2241" stroke="#2b2241"></path><path d="M620 476L681 465L612 436Z" fill="#802b48" stroke="#802b48"></path><path d="M265 498L339 556L348 536Z" fill="#56274d" stroke="#56274d"></path><path d="M422 130L370 115L370 171Z" fill="#402549" stroke="#402549"></path><path d="M260 160L228 228L262 229Z" fill="#a64a29" stroke="#a64a29"></path><path d="M407 62L370 115L422 130Z" fill="#a64a29" stroke="#a64a29"></path><path d="M610 532L622 529L620 476Z" fill="#191e37" stroke="#191e37"></path><path d="M266 449L265 498L279 471Z" fill="#9e3c36" stroke="#9e3c36"></path><path d="M279 471L265 498L338 476Z" fill="#2b2241" stroke="#2b2241"></path><path d="M228 495L265 498L266 449Z" fill="#56274d" stroke="#56274d"></path><path d="M662 513L681 465L620 476Z" fill="#56274d" stroke="#56274d"></path><path d="M725 377L705 284L642 350Z" fill="#56274d" stroke="#56274d"></path><path d="M681 271L685 230L643 229Z" fill="#0b182a" stroke="#0b182a"></path><path d="M643 215L671 165L588 172Z" fill="#802b48" stroke="#802b48"></path><path d="M588 172L566 83L527 145Z" fill="#191e37" stroke="#191e37"></path><path d="M705 284L685 230L681 271Z" fill="#402549" stroke="#402549"></path><path d="M725 377L642 350L671 388Z" fill="#913141" stroke="#913141"></path><path d="M620 600L652 537L622 529Z" fill="#402549" stroke="#402549"></path><path d="M493 558L558 578L541 494Z" fill="#00101c" stroke="#00101c"></path><path d="M546 600L558 578L493 558Z" fill="#402549" stroke="#402549"></path><path d="M200 264L275 261L261 241Z" fill="#6c294d" stroke="#6c294d"></path><path d="M228 376L208 430L272 437Z" fill="#802b48" stroke="#802b48"></path><path d="M424 600L495 600L493 558Z" fill="#913141" stroke="#913141"></path><path d="M382 600L424 600L375 567Z" fill="#9e3c36" stroke="#9e3c36"></path><path d="M375 567L424 600L382 541Z" fill="#00101c" stroke="#00101c"></path><path d="M260 160L262 229L311 185Z" fill="#802b48" stroke="#802b48"></path><path d="M262 229L228 228L261 241Z" fill="#0b182a" stroke="#0b182a"></path><path d="M622 529L662 513L620 476Z" fill="#802b48" stroke="#802b48"></path><path d="M652 537L662 513L622 529Z" fill="#6c294d" stroke="#6c294d"></path><path d="M208 385L208 430L228 376Z" fill="#2b2241" stroke="#2b2241"></path><path d="M752 484L725 377L681 465Z" fill="#913141" stroke="#913141"></path><path d="M681 465L725 377L671 388Z" fill="#2b2241" stroke="#2b2241"></path><path d="M365 600L382 600L375 567Z" fill="#0b182a" stroke="#0b182a"></path><path d="M365 600L375 567L339 556Z" fill="#913141" stroke="#913141"></path><path d="M495 600L546 600L493 558Z" fill="#a64a29" stroke="#a64a29"></path><path d="M620 600L622 529L610 532Z" fill="#a64a29" stroke="#a64a29"></path><path d="M273 129L311 185L325 180Z" fill="#56274d" stroke="#56274d"></path><path d="M181 208L200 264L228 228Z" fill="#56274d" stroke="#56274d"></path><path d="M228 228L200 264L261 241Z" fill="#913141" stroke="#913141"></path><path d="M208 385L130 421L208 430Z" fill="#913141" stroke="#913141"></path><path d="M584 600L610 532L558 578Z" fill="#191e37" stroke="#191e37"></path><path d="M662 513L725 519L681 465Z" fill="#00101c" stroke="#00101c"></path><path d="M200 264L194 282L264 317Z" fill="#802b48" stroke="#802b48"></path><path d="M316 600L365 600L339 556Z" fill="#a64a29" stroke="#a64a29"></path><path d="M209 475L228 495L266 449Z" fill="#9e3c36" stroke="#9e3c36"></path><path d="M259 600L316 600L339 556Z" fill="#0b182a" stroke="#0b182a"></path><path d="M679 163L671 165L685 230Z" fill="#913141" stroke="#913141"></path><path d="M685 230L671 165L643 215Z" fill="#913141" stroke="#913141"></path><path d="M473 18L431 68L509 124Z" fill="#00101c" stroke="#00101c"></path><path d="M509 124L431 68L422 130Z" fill="#a64a29" stroke="#a64a29"></path><path d="M370 115L273 129L325 180Z" fill="#00101c" stroke="#00101c"></path><path d="M671 165L626 119L588 172Z" fill="#802b48" stroke="#802b48"></path><path d="M626 119L566 83L588 172Z" fill="#6c294d" stroke="#6c294d"></path><path d="M130 428L209 475L208 430Z" fill="#2b2241" stroke="#2b2241"></path><path d="M208 430L209 475L266 449Z" fill="#9e3c36" stroke="#9e3c36"></path><path d="M733 200L679 163L685 230Z" fill="#a64a29" stroke="#a64a29"></path><path d="M671 165L638 119L626 119Z" fill="#2b2241" stroke="#2b2241"></path><path d="M750 274L685 230L705 284Z" fill="#00101c" stroke="#00101c"></path><path d="M264 124L273 129L318 56Z" fill="#6c294d" stroke="#6c294d"></path><path d="M183 159L181 208L228 228Z" fill="#802b48" stroke="#802b48"></path><path d="M546 600L584 600L558 578Z" fill="#402549" stroke="#402549"></path><path d="M412 13L407 62L431 68Z" fill="#802b48" stroke="#802b48"></path><path d="M431 68L407 62L422 130Z" fill="#a64a29" stroke="#a64a29"></path><path d="M589 23L568 32L566 83Z" fill="#191e37" stroke="#191e37"></path><path d="M679 163L638 119L671 165Z" fill="#0b182a" stroke="#0b182a"></path><path d="M236 552L339 556L265 498Z" fill="#0b182a" stroke="#0b182a"></path><path d="M230 544L265 498L228 495Z" fill="#9e3c36" stroke="#9e3c36"></path><path d="M331 63L273 129L370 115Z" fill="#a64a29" stroke="#a64a29"></path><path d="M273 129L264 124L260 160Z" fill="#402549" stroke="#402549"></path><path d="M771 347L750 274L705 284Z" fill="#56274d" stroke="#56274d"></path><path d="M584 600L620 600L610 532Z" fill="#802b48" stroke="#802b48"></path><path d="M209 475L230 544L228 495Z" fill="#6c294d" stroke="#6c294d"></path><path d="M230 544L236 552L265 498Z" fill="#191e37" stroke="#191e37"></path><path d="M150 252L153 326L194 282Z" fill="#00101c" stroke="#00101c"></path><path d="M194 282L153 326L238 349Z" fill="#9e3c36" stroke="#9e3c36"></path><path d="M209 475L182 582L230 544Z" fill="#402549" stroke="#402549"></path><path d="M150 252L194 282L200 264Z" fill="#9e3c36" stroke="#9e3c36"></path><path d="M750 274L733 200L685 230Z" fill="#6c294d" stroke="#6c294d"></path><path d="M713 114L673 79L638 119Z" fill="#191e37" stroke="#191e37"></path><path d="M407 62L331 63L370 115Z" fill="#a64a29" stroke="#a64a29"></path><path d="M183 159L228 228L260 160Z" fill="#802b48" stroke="#802b48"></path><path d="M620 600L703 538L652 537Z" fill="#913141" stroke="#913141"></path><path d="M652 537L703 538L662 513Z" fill="#6c294d" stroke="#6c294d"></path><path d="M725 377L771 347L705 284Z" fill="#a64a29" stroke="#a64a29"></path><path d="M782 372L771 347L725 377Z" fill="#191e37" stroke="#191e37"></path><path d="M750 274L780 214L733 200Z" fill="#913141" stroke="#913141"></path><path d="M703 538L725 519L662 513Z" fill="#191e37" stroke="#191e37"></path><path d="M331 63L318 56L273 129Z" fill="#6c294d" stroke="#6c294d"></path><path d="M264 124L183 159L260 160Z" fill="#402549" stroke="#402549"></path><path d="M346 0L318 56L331 63Z" fill="#9e3c36" stroke="#9e3c36"></path><path d="M181 208L150 252L200 264Z" fill="#2b2241" stroke="#2b2241"></path><path d="M785 377L782 372L725 377Z" fill="#56274d" stroke="#56274d"></path><path d="M771 347L791 333L750 274Z" fill="#802b48" stroke="#802b48"></path><path d="M725 519L752 484L681 465Z" fill="#a64a29" stroke="#a64a29"></path><path d="M236 552L259 600L339 556Z" fill="#0b182a" stroke="#0b182a"></path><path d="M182 582L259 600L236 552Z" fill="#802b48" stroke="#802b48"></path><path d="M515 0L473 18L566 83Z" fill="#402549" stroke="#402549"></path><path d="M566 83L473 18L509 124Z" fill="#a64a29" stroke="#a64a29"></path><path d="M407 62L346 0L331 63Z" fill="#913141" stroke="#913141"></path><path d="M788 405L785 377L725 377Z" fill="#913141" stroke="#913141"></path><path d="M782 372L791 333L771 347Z" fill="#a64a29" stroke="#a64a29"></path><path d="M318 56L244 97L264 124Z" fill="#191e37" stroke="#191e37"></path><path d="M181 208L130 233L150 252Z" fill="#0b182a" stroke="#0b182a"></path><path d="M105 312L131 352L153 326Z" fill="#2b2241" stroke="#2b2241"></path><path d="M153 326L131 352L208 385Z" fill="#56274d" stroke="#56274d"></path><path d="M673 79L626 119L638 119Z" fill="#402549" stroke="#402549"></path><path d="M589 23L566 83L637 31Z" fill="#0b182a" stroke="#0b182a"></path><path d="M785 377L791 333L782 372Z" fill="#2b2241" stroke="#2b2241"></path><path d="M244 97L183 159L264 124Z" fill="#6c294d" stroke="#6c294d"></path><path d="M752 484L788 405L725 377Z" fill="#802b48" stroke="#802b48"></path><path d="M785 377L844 318L791 333Z" fill="#56274d" stroke="#56274d"></path><path d="M114 370L126 360L105 312Z" fill="#9e3c36" stroke="#9e3c36"></path><path d="M131 352L126 360L208 385Z" fill="#0b182a" stroke="#0b182a"></path><path d="M230 544L182 582L236 552Z" fill="#191e37" stroke="#191e37"></path><path d="M473 18L412 13L431 68Z" fill="#913141" stroke="#913141"></path><path d="M126 360L130 421L208 385Z" fill="#191e37" stroke="#191e37"></path><path d="M713 114L638 119L679 163Z" fill="#9e3c36" stroke="#9e3c36"></path><path d="M87 380L130 428L130 421Z" fill="#00101c" stroke="#00101c"></path><path d="M130 421L130 428L208 430Z" fill="#56274d" stroke="#56274d"></path><path d="M739 119L679 163L733 200Z" fill="#a64a29" stroke="#a64a29"></path><path d="M739 119L713 114L679 163Z" fill="#9e3c36" stroke="#9e3c36"></path><path d="M473 18L456 0L412 13Z" fill="#2b2241" stroke="#2b2241"></path><path d="M515 0L456 0L473 18Z" fill="#0b182a" stroke="#0b182a"></path><path d="M800 247L780 214L750 274Z" fill="#a64a29" stroke="#a64a29"></path><path d="M637 31L566 83L626 119Z" fill="#9e3c36" stroke="#9e3c36"></path><path d="M568 32L515 0L566 83Z" fill="#56274d" stroke="#56274d"></path><path d="M105 312L126 360L131 352Z" fill="#191e37" stroke="#191e37"></path><path d="M126 360L114 370L130 421Z" fill="#6c294d" stroke="#6c294d"></path><path d="M456 0L410 0L412 13Z" fill="#9e3c36" stroke="#9e3c36"></path><path d="M412 13L346 0L407 62Z" fill="#56274d" stroke="#56274d"></path><path d="M268 0L217 86L244 97Z" fill="#2b2241" stroke="#2b2241"></path><path d="M183 159L130 233L181 208Z" fill="#191e37" stroke="#191e37"></path><path d="M150 252L105 312L153 326Z" fill="#0b182a" stroke="#0b182a"></path><path d="M531 0L515 0L568 32Z" fill="#56274d" stroke="#56274d"></path><path d="M589 23L531 0L568 32Z" fill="#402549" stroke="#402549"></path><path d="M822 224L800 247L844 318Z" fill="#0b182a" stroke="#0b182a"></path><path d="M791 333L800 247L750 274Z" fill="#9e3c36" stroke="#9e3c36"></path><path d="M268 0L244 97L318 56Z" fill="#a64a29" stroke="#a64a29"></path><path d="M244 97L217 86L183 159Z" fill="#6c294d" stroke="#6c294d"></path><path d="M81 208L113 233L130 233Z" fill="#191e37" stroke="#191e37"></path><path d="M113 233L105 312L150 252Z" fill="#2b2241" stroke="#2b2241"></path><path d="M725 519L777 513L752 484Z" fill="#a64a29" stroke="#a64a29"></path><path d="M752 484L815 476L788 405Z" fill="#00101c" stroke="#00101c"></path><path d="M703 538L737 571L725 519Z" fill="#802b48" stroke="#802b48"></path><path d="M733 600L737 571L703 538Z" fill="#402549" stroke="#402549"></path><path d="M780 117L733 200L780 214Z" fill="#2b2241" stroke="#2b2241"></path><path d="M780 117L739 119L733 200Z" fill="#191e37" stroke="#191e37"></path><path d="M713 114L763 92L673 79Z" fill="#2b2241" stroke="#2b2241"></path><path d="M673 79L637 31L626 119Z" fill="#00101c" stroke="#00101c"></path><path d="M737 571L777 513L725 519Z" fill="#191e37" stroke="#191e37"></path><path d="M627 0L637 31L668 0Z" fill="#a64a29" stroke="#a64a29"></path><path d="M589 23L627 0L531 0Z" fill="#00101c" stroke="#00101c"></path><path d="M410 0L346 0L412 13Z" fill="#802b48" stroke="#802b48"></path><path d="M130 233L113 233L150 252Z" fill="#402549" stroke="#402549"></path><path d="M91 226L113 233L81 208Z" fill="#a64a29" stroke="#a64a29"></path><path d="M113 533L182 582L209 475Z" fill="#a64a29" stroke="#a64a29"></path><path d="M183 70L171 115L217 86Z" fill="#9e3c36" stroke="#9e3c36"></path><path d="M217 86L171 115L183 159Z" fill="#56274d" stroke="#56274d"></path><path d="M346 0L319 0L318 56Z" fill="#00101c" stroke="#00101c"></path><path d="M114 370L87 380L130 421Z" fill="#2b2241" stroke="#2b2241"></path><path d="M152 600L171 600L182 582Z" fill="#9e3c36" stroke="#9e3c36"></path><path d="M105 312L87 380L114 370Z" fill="#9e3c36" stroke="#9e3c36"></path><path d="M67 380L87 380L105 312Z" fill="#802b48" stroke="#802b48"></path><path d="M620 600L733 600L703 538Z" fill="#2b2241" stroke="#2b2241"></path><path d="M737 571L781 600L777 513Z" fill="#6c294d" stroke="#6c294d"></path><path d="M733 600L736 600L737 571Z" fill="#a64a29" stroke="#a64a29"></path><path d="M825 496L815 476L777 513Z" fill="#191e37" stroke="#191e37"></path><path d="M777 513L815 476L752 484Z" fill="#0b182a" stroke="#0b182a"></path><path d="M884 384L844 318L785 377Z" fill="#6c294d" stroke="#6c294d"></path><path d="M844 318L800 247L791 333Z" fill="#913141" stroke="#913141"></path><path d="M800 247L822 224L780 214Z" fill="#56274d" stroke="#56274d"></path><path d="M675 11L637 31L673 79Z" fill="#9e3c36" stroke="#9e3c36"></path><path d="M637 31L627 0L589 23Z" fill="#191e37" stroke="#191e37"></path><path d="M822 224L815 202L780 214Z" fill="#2b2241" stroke="#2b2241"></path><path d="M884 384L785 377L788 405Z" fill="#402549" stroke="#402549"></path><path d="M113 533L209 475L130 428Z" fill="#191e37" stroke="#191e37"></path><path d="M182 582L171 600L259 600Z" fill="#402549" stroke="#402549"></path><path d="M121 130L130 233L183 159Z" fill="#0b182a" stroke="#0b182a"></path><path d="M113 233L75 293L105 312Z" fill="#6c294d" stroke="#6c294d"></path><path d="M66 270L75 293L113 233Z" fill="#00101c" stroke="#00101c"></path><path d="M191 0L183 70L217 86Z" fill="#913141" stroke="#913141"></path><path d="M171 115L121 130L183 159Z" fill="#56274d" stroke="#56274d"></path><path d="M815 202L780 117L780 214Z" fill="#2b2241" stroke="#2b2241"></path><path d="M739 119L763 92L713 114Z" fill="#9e3c36" stroke="#9e3c36"></path><path d="M319 0L268 0L318 56Z" fill="#802b48" stroke="#802b48"></path><path d="M75 293L67 380L105 312Z" fill="#6c294d" stroke="#6c294d"></path><path d="M87 380L79 474L130 428Z" fill="#191e37" stroke="#191e37"></path><path d="M780 117L763 92L739 119Z" fill="#2b2241" stroke="#2b2241"></path><path d="M79 474L113 533L130 428Z" fill="#802b48" stroke="#802b48"></path><path d="M833 600L825 496L777 513Z" fill="#9e3c36" stroke="#9e3c36"></path><path d="M815 476L866 425L788 405Z" fill="#6c294d" stroke="#6c294d"></path><path d="M700 0L675 11L673 79Z" fill="#402549" stroke="#402549"></path><path d="M825 496L830 489L815 476Z" fill="#2b2241" stroke="#2b2241"></path><path d="M125 570L152 600L182 582Z" fill="#0b182a" stroke="#0b182a"></path><path d="M144 0L164 74L183 70Z" fill="#0b182a" stroke="#0b182a"></path><path d="M183 70L164 74L171 115Z" fill="#402549" stroke="#402549"></path><path d="M91 226L66 270L113 233Z" fill="#402549" stroke="#402549"></path><path d="M75 293L0 320L67 380Z" fill="#00101c" stroke="#00101c"></path><path d="M32 216L66 270L91 226Z" fill="#00101c" stroke="#00101c"></path><path d="M119 73L121 130L171 115Z" fill="#56274d" stroke="#56274d"></path><path d="M700 0L668 0L675 11Z" fill="#2b2241" stroke="#2b2241"></path><path d="M675 11L668 0L637 31Z" fill="#2b2241" stroke="#2b2241"></path><path d="M67 380L79 474L87 380Z" fill="#402549" stroke="#402549"></path><path d="M121 130L81 208L130 233Z" fill="#2b2241" stroke="#2b2241"></path><path d="M98 600L125 570L113 533Z" fill="#a64a29" stroke="#a64a29"></path><path d="M113 533L125 570L182 582Z" fill="#56274d" stroke="#56274d"></path><path d="M780 117L781 99L763 92Z" fill="#56274d" stroke="#56274d"></path><path d="M729 0L700 0L673 79Z" fill="#a64a29" stroke="#a64a29"></path><path d="M831 87L781 99L780 117Z" fill="#56274d" stroke="#56274d"></path><path d="M736 600L781 600L737 571Z" fill="#00101c" stroke="#00101c"></path><path d="M900 538L883 465L830 489Z" fill="#802b48" stroke="#802b48"></path><path d="M883 465L866 425L830 489Z" fill="#2b2241" stroke="#2b2241"></path><path d="M830 489L866 425L815 476Z" fill="#56274d" stroke="#56274d"></path><path d="M32 453L66 480L79 474Z" fill="#0b182a" stroke="#0b182a"></path><path d="M79 474L66 480L113 533Z" fill="#2b2241" stroke="#2b2241"></path><path d="M32 453L79 474L67 380Z" fill="#a64a29" stroke="#a64a29"></path><path d="M857 210L831 152L815 202Z" fill="#00101c" stroke="#00101c"></path><path d="M815 202L831 152L780 117Z" fill="#191e37" stroke="#191e37"></path><path d="M857 210L815 202L822 224Z" fill="#00101c" stroke="#00101c"></path><path d="M857 210L822 224L900 257Z" fill="#00101c" stroke="#00101c"></path><path d="M900 266L822 224L844 318Z" fill="#00101c" stroke="#00101c"></path><path d="M772 40L673 79L763 92Z" fill="#0b182a" stroke="#0b182a"></path><path d="M772 40L763 92L781 99Z" fill="#00101c" stroke="#00101c"></path><path d="M866 425L884 384L788 405Z" fill="#0b182a" stroke="#0b182a"></path><path d="M164 74L119 73L171 115Z" fill="#2b2241" stroke="#2b2241"></path><path d="M121 130L59 160L81 208Z" fill="#2b2241" stroke="#2b2241"></path><path d="M144 0L119 73L164 74Z" fill="#6c294d" stroke="#6c294d"></path><path d="M831 87L772 40L781 99Z" fill="#2b2241" stroke="#2b2241"></path><path d="M268 0L191 0L217 86Z" fill="#56274d" stroke="#56274d"></path><path d="M772 40L729 0L673 79Z" fill="#2b2241" stroke="#2b2241"></path><path d="M900 466L883 465L900 538Z" fill="#56274d" stroke="#56274d"></path><path d="M866 425L900 420L884 384Z" fill="#402549" stroke="#402549"></path><path d="M900 420L900 343L884 384Z" fill="#56274d" stroke="#56274d"></path><path d="M884 384L900 343L844 318Z" fill="#9e3c36" stroke="#9e3c36"></path><path d="M67 140L59 160L121 130Z" fill="#191e37" stroke="#191e37"></path><path d="M81 208L32 216L91 226Z" fill="#2b2241" stroke="#2b2241"></path><path d="M0 409L32 453L67 380Z" fill="#9e3c36" stroke="#9e3c36"></path><path d="M0 320L75 293L66 270Z" fill="#402549" stroke="#402549"></path><path d="M54 600L98 600L113 533Z" fill="#9e3c36" stroke="#9e3c36"></path><path d="M65 89L67 140L121 130Z" fill="#00101c" stroke="#00101c"></path><path d="M54 600L113 533L29 587Z" fill="#2b2241" stroke="#2b2241"></path><path d="M125 570L98 600L152 600Z" fill="#9e3c36" stroke="#9e3c36"></path><path d="M0 210L32 216L0 150Z" fill="#802b48" stroke="#802b48"></path><path d="M59 160L32 216L81 208Z" fill="#402549" stroke="#402549"></path><path d="M900 435L900 420L866 425Z" fill="#2b2241" stroke="#2b2241"></path><path d="M900 343L900 266L844 318Z" fill="#402549" stroke="#402549"></path><path d="M877 95L831 87L831 152Z" fill="#6c294d" stroke="#6c294d"></path><path d="M831 152L831 87L780 117Z" fill="#0b182a" stroke="#0b182a"></path><path d="M900 266L900 257L822 224Z" fill="#56274d" stroke="#56274d"></path><path d="M883 465L900 435L866 425Z" fill="#00101c" stroke="#00101c"></path><path d="M900 148L831 152L857 210Z" fill="#a64a29" stroke="#a64a29"></path><path d="M772 40L831 0L729 0Z" fill="#0b182a" stroke="#0b182a"></path><path d="M119 73L101 68L121 130Z" fill="#6c294d" stroke="#6c294d"></path><path d="M102 0L101 68L119 73Z" fill="#6c294d" stroke="#6c294d"></path><path d="M781 600L833 600L777 513Z" fill="#0b182a" stroke="#0b182a"></path><path d="M883 465L900 466L900 435Z" fill="#402549" stroke="#402549"></path><path d="M878 557L830 489L825 496Z" fill="#0b182a" stroke="#0b182a"></path><path d="M900 257L900 212L857 210Z" fill="#9e3c36" stroke="#9e3c36"></path><path d="M0 264L0 320L66 270Z" fill="#0b182a" stroke="#0b182a"></path><path d="M65 89L50 134L67 140Z" fill="#a64a29" stroke="#a64a29"></path><path d="M67 140L50 134L59 160Z" fill="#a64a29" stroke="#a64a29"></path><path d="M0 256L0 264L66 270Z" fill="#00101c" stroke="#00101c"></path><path d="M0 320L0 409L67 380Z" fill="#a64a29" stroke="#a64a29"></path><path d="M32 453L0 470L66 480Z" fill="#00101c" stroke="#00101c"></path><path d="M0 256L66 270L32 216Z" fill="#913141" stroke="#913141"></path><path d="M191 0L144 0L183 70Z" fill="#00101c" stroke="#00101c"></path><path d="M101 68L65 89L121 130Z" fill="#913141" stroke="#913141"></path><path d="M0 210L0 256L32 216Z" fill="#802b48" stroke="#802b48"></path><path d="M833 600L878 557L825 496Z" fill="#2b2241" stroke="#2b2241"></path><path d="M46 82L65 89L101 68Z" fill="#a64a29" stroke="#a64a29"></path><path d="M0 150L32 216L59 160Z" fill="#2b2241" stroke="#2b2241"></path><path d="M0 409L0 450L32 453Z" fill="#a64a29" stroke="#a64a29"></path><path d="M0 450L0 470L32 453Z" fill="#9e3c36" stroke="#9e3c36"></path><path d="M0 150L59 160L50 134Z" fill="#9e3c36" stroke="#9e3c36"></path><path d="M29 587L113 533L66 480Z" fill="#a64a29" stroke="#a64a29"></path><path d="M900 600L900 538L878 557Z" fill="#802b48" stroke="#802b48"></path><path d="M878 557L900 538L830 489Z" fill="#a64a29" stroke="#a64a29"></path><path d="M900 212L900 148L857 210Z" fill="#913141" stroke="#913141"></path><path d="M900 148L877 95L831 152Z" fill="#00101c" stroke="#00101c"></path><path d="M859 31L831 0L772 40Z" fill="#6c294d" stroke="#6c294d"></path><path d="M84 0L46 82L101 68Z" fill="#00101c" stroke="#00101c"></path><path d="M65 89L46 82L50 134Z" fill="#56274d" stroke="#56274d"></path><path d="M0 553L29 587L66 480Z" fill="#2b2241" stroke="#2b2241"></path><path d="M144 0L102 0L119 73Z" fill="#802b48" stroke="#802b48"></path><path d="M0 89L0 150L50 134Z" fill="#2b2241" stroke="#2b2241"></path><path d="M0 470L0 553L66 480Z" fill="#6c294d" stroke="#6c294d"></path><path d="M859 31L772 40L831 87Z" fill="#6c294d" stroke="#6c294d"></path><path d="M900 90L859 31L877 95Z" fill="#402549" stroke="#402549"></path><path d="M877 95L859 31L831 87Z" fill="#2b2241" stroke="#2b2241"></path><path d="M900 148L900 90L877 95Z" fill="#402549" stroke="#402549"></path><path d="M102 0L84 0L101 68Z" fill="#56274d" stroke="#56274d"></path><path d="M46 82L0 89L50 134Z" fill="#2b2241" stroke="#2b2241"></path><path d="M833 600L900 600L878 557Z" fill="#00101c" stroke="#00101c"></path><path d="M0 78L0 89L46 82Z" fill="#00101c" stroke="#00101c"></path><path d="M0 553L0 600L29 587Z" fill="#6c294d" stroke="#6c294d"></path><path d="M29 587L0 600L54 600Z" fill="#191e37" stroke="#191e37"></path><path d="M0 0L0 78L46 82Z" fill="#2b2241" stroke="#2b2241"></path><path d="M900 15L870 0L859 31Z" fill="#191e37" stroke="#191e37"></path><path d="M859 31L870 0L831 0Z" fill="#913141" stroke="#913141"></path><path d="M900 90L900 15L859 31Z" fill="#00101c" stroke="#00101c"></path><path d="M900 15L900 0L870 0Z" fill="#00101c" stroke="#00101c"></path><path d="M84 0L0 0L46 82Z" fill="#402549" stroke="#402549"></path></g></svg>