<svg id="visual" viewBox="0 0 900 600" width="900" height="600" xmlns="http://www.w3.org/2000/svg" xmlns:xlink="http://www.w3.org/1999/xlink" version="1.1"><g stroke-width="1" stroke-linejoin="bevel"><path d="M489 326L401 419L506 404Z" fill="#6c294d" stroke="#6c294d"></path><path d="M401 419L466 528L506 404Z" fill="#191e37" stroke="#191e37"></path><path d="M489 326L377 270L401 419Z" fill="#191e37" stroke="#191e37"></path><path d="M401 419L265 372L382 471Z" fill="#0b182a" stroke="#0b182a"></path><path d="M489 326L435 226L377 270Z" fill="#802b48" stroke="#802b48"></path><path d="M382 471L466 528L401 419Z" fill="#00101c" stroke="#00101c"></path><path d="M595 518L610 375L506 404Z" fill="#191e37" stroke="#191e37"></path><path d="M506 404L610 375L489 326Z" fill="#913141" stroke="#913141"></path><path d="M489 326L533 189L435 226Z" fill="#9e3c36" stroke="#9e3c36"></path><path d="M610 375L607 300L489 326Z" fill="#2b2241" stroke="#2b2241"></path><path d="M377 270L265 372L401 419Z" fill="#2b2241" stroke="#2b2241"></path><path d="M377 270L267 284L265 372Z" fill="#0b182a" stroke="#0b182a"></path><path d="M262 233L267 284L377 270Z" fill="#402549" stroke="#402549"></path><path d="M466 528L595 518L506 404Z" fill="#9e3c36" stroke="#9e3c36"></path><path d="M607 300L533 189L489 326Z" fill="#0b182a" stroke="#0b182a"></path><path d="M435 226L262 233L377 270Z" fill="#402549" stroke="#402549"></path><path d="M265 372L279 499L382 471Z" fill="#0b182a" stroke="#0b182a"></path><path d="M382 471L401 600L466 528Z" fill="#00101c" stroke="#00101c"></path><path d="M295 600L401 600L382 471Z" fill="#0b182a" stroke="#0b182a"></path><path d="M466 528L501 600L595 518Z" fill="#802b48" stroke="#802b48"></path><path d="M401 600L501 600L466 528Z" fill="#191e37" stroke="#191e37"></path><path d="M168 405L230 483L265 372Z" fill="#191e37" stroke="#191e37"></path><path d="M432 104L262 233L435 226Z" fill="#56274d" stroke="#56274d"></path><path d="M707 428L683 329L610 375Z" fill="#191e37" stroke="#191e37"></path><path d="M610 375L683 329L607 300Z" fill="#56274d" stroke="#56274d"></path><path d="M607 300L605 177L533 189Z" fill="#0b182a" stroke="#0b182a"></path><path d="M265 372L230 483L279 499Z" fill="#9e3c36" stroke="#9e3c36"></path><path d="M279 499L295 600L382 471Z" fill="#2b2241" stroke="#2b2241"></path><path d="M168 405L265 372L162 330Z" fill="#913141" stroke="#913141"></path><path d="M679 202L605 177L607 300Z" fill="#913141" stroke="#913141"></path><path d="M533 189L473 111L435 226Z" fill="#56274d" stroke="#56274d"></path><path d="M501 600L581 600L595 518Z" fill="#6c294d" stroke="#6c294d"></path><path d="M595 518L707 428L610 375Z" fill="#0b182a" stroke="#0b182a"></path><path d="M715 509L707 428L595 518Z" fill="#56274d" stroke="#56274d"></path><path d="M594 64L473 111L533 189Z" fill="#913141" stroke="#913141"></path><path d="M230 483L295 600L279 499Z" fill="#802b48" stroke="#802b48"></path><path d="M473 111L432 104L435 226Z" fill="#2b2241" stroke="#2b2241"></path><path d="M162 330L265 372L267 284Z" fill="#2b2241" stroke="#2b2241"></path><path d="M230 483L164 600L295 600Z" fill="#56274d" stroke="#56274d"></path><path d="M683 329L679 202L607 300Z" fill="#6c294d" stroke="#6c294d"></path><path d="M605 177L594 64L533 189Z" fill="#802b48" stroke="#802b48"></path><path d="M699 137L679 202L796 239Z" fill="#191e37" stroke="#191e37"></path><path d="M191 234L162 330L267 284Z" fill="#9e3c36" stroke="#9e3c36"></path><path d="M224 131L191 234L262 233Z" fill="#00101c" stroke="#00101c"></path><path d="M262 233L191 234L267 284Z" fill="#6c294d" stroke="#6c294d"></path><path d="M721 600L715 509L595 518Z" fill="#2b2241" stroke="#2b2241"></path><path d="M303 68L224 131L262 233Z" fill="#6c294d" stroke="#6c294d"></path><path d="M432 104L303 68L262 233Z" fill="#191e37" stroke="#191e37"></path><path d="M426 0L303 68L432 104Z" fill="#0b182a" stroke="#0b182a"></path><path d="M699 137L594 64L605 177Z" fill="#2b2241" stroke="#2b2241"></path><path d="M473 111L426 0L432 104Z" fill="#00101c" stroke="#00101c"></path><path d="M796 239L679 202L683 329Z" fill="#00101c" stroke="#00101c"></path><path d="M679 202L699 137L605 177Z" fill="#0b182a" stroke="#0b182a"></path><path d="M796 239L683 329L825 385Z" fill="#802b48" stroke="#802b48"></path><path d="M162 330L103 422L168 405Z" fill="#402549" stroke="#402549"></path><path d="M168 405L90 515L230 483Z" fill="#402549" stroke="#402549"></path><path d="M109 266L103 422L162 330Z" fill="#00101c" stroke="#00101c"></path><path d="M109 266L162 330L191 234Z" fill="#913141" stroke="#913141"></path><path d="M581 600L721 600L595 518Z" fill="#6c294d" stroke="#6c294d"></path><path d="M825 385L683 329L707 428Z" fill="#2b2241" stroke="#2b2241"></path><path d="M131 168L109 266L191 234Z" fill="#6c294d" stroke="#6c294d"></path><path d="M90 515L164 600L230 483Z" fill="#56274d" stroke="#56274d"></path><path d="M825 385L707 428L807 494Z" fill="#402549" stroke="#402549"></path><path d="M520 0L426 0L473 111Z" fill="#402549" stroke="#402549"></path><path d="M807 494L707 428L715 509Z" fill="#802b48" stroke="#802b48"></path><path d="M811 600L807 494L715 509Z" fill="#802b48" stroke="#802b48"></path><path d="M224 131L131 168L191 234Z" fill="#00101c" stroke="#00101c"></path><path d="M61 96L131 168L224 131Z" fill="#191e37" stroke="#191e37"></path><path d="M601 0L520 0L594 64Z" fill="#913141" stroke="#913141"></path><path d="M594 64L520 0L473 111Z" fill="#56274d" stroke="#56274d"></path><path d="M67 600L90 515L0 600Z" fill="#a64a29" stroke="#a64a29"></path><path d="M103 422L90 515L168 405Z" fill="#913141" stroke="#913141"></path><path d="M426 0L310 0L303 68Z" fill="#6c294d" stroke="#6c294d"></path><path d="M303 68L202 0L224 131Z" fill="#913141" stroke="#913141"></path><path d="M726 0L594 64L699 137Z" fill="#402549" stroke="#402549"></path><path d="M726 0L601 0L594 64Z" fill="#a64a29" stroke="#a64a29"></path><path d="M825 385L838 260L796 239Z" fill="#191e37" stroke="#191e37"></path><path d="M837 76L726 0L699 137Z" fill="#913141" stroke="#913141"></path><path d="M721 600L811 600L715 509Z" fill="#9e3c36" stroke="#9e3c36"></path><path d="M807 494L900 426L825 385Z" fill="#00101c" stroke="#00101c"></path><path d="M825 385L900 320L838 260Z" fill="#913141" stroke="#913141"></path><path d="M0 487L90 515L103 422Z" fill="#0b182a" stroke="#0b182a"></path><path d="M90 515L67 600L164 600Z" fill="#402549" stroke="#402549"></path><path d="M109 266L0 389L103 422Z" fill="#402549" stroke="#402549"></path><path d="M0 288L0 389L109 266Z" fill="#802b48" stroke="#802b48"></path><path d="M310 0L202 0L303 68Z" fill="#402549" stroke="#402549"></path><path d="M0 201L0 288L109 266Z" fill="#a64a29" stroke="#a64a29"></path><path d="M900 524L900 426L807 494Z" fill="#56274d" stroke="#56274d"></path><path d="M900 426L900 320L825 385Z" fill="#9e3c36" stroke="#9e3c36"></path><path d="M837 76L699 137L796 239Z" fill="#191e37" stroke="#191e37"></path><path d="M0 201L109 266L131 168Z" fill="#802b48" stroke="#802b48"></path><path d="M0 389L0 487L103 422Z" fill="#9e3c36" stroke="#9e3c36"></path><path d="M900 189L796 239L838 260Z" fill="#402549" stroke="#402549"></path><path d="M811 600L900 524L807 494Z" fill="#191e37" stroke="#191e37"></path><path d="M202 0L61 96L224 131Z" fill="#2b2241" stroke="#2b2241"></path><path d="M61 96L0 201L131 168Z" fill="#0b182a" stroke="#0b182a"></path><path d="M900 320L900 189L838 260Z" fill="#00101c" stroke="#00101c"></path><path d="M900 189L837 76L796 239Z" fill="#9e3c36" stroke="#9e3c36"></path><path d="M0 487L0 600L90 515Z" fill="#913141" stroke="#913141"></path><path d="M811 600L900 600L900 524Z" fill="#191e37" stroke="#191e37"></path><path d="M837 76L785 0L726 0Z" fill="#6c294d" stroke="#6c294d"></path><path d="M900 189L900 111L837 76Z" fill="#0b182a" stroke="#0b182a"></path><path d="M837 76L900 0L785 0Z" fill="#00101c" stroke="#00101c"></path><path d="M202 0L80 0L61 96Z" fill="#2b2241" stroke="#2b2241"></path><path d="M61 96L0 81L0 201Z" fill="#802b48" stroke="#802b48"></path><path d="M80 0L0 81L61 96Z" fill="#402549" stroke="#402549"></path><path d="M80 0L0 0L0 81Z" fill="#402549" stroke="#402549"></path><path d="M900 111L900 0L837 76Z" fill="#a64a29" stroke="#a64a29"></path></g></svg>