<svg id="visual" viewBox="0 0 900 600" width="900" height="600" xmlns="http://www.w3.org/2000/svg" xmlns:xlink="http://www.w3.org/1999/xlink" version="1.1"><g stroke-width="1" stroke-linejoin="bevel"><path d="M488 329L537 374L529 234Z" fill="#802b48" stroke="#802b48"></path><path d="M537 374L638 332L529 234Z" fill="#a64a29" stroke="#a64a29"></path><path d="M638 332L596 209L529 234Z" fill="#6c294d" stroke="#6c294d"></path><path d="M602 505L587 422L502 517Z" fill="#913141" stroke="#913141"></path><path d="M537 374L587 422L638 332Z" fill="#00101c" stroke="#00101c"></path><path d="M587 422L660 411L638 332Z" fill="#191e37" stroke="#191e37"></path><path d="M660 411L705 339L638 332Z" fill="#191e37" stroke="#191e37"></path><path d="M638 332L726 218L596 209Z" fill="#402549" stroke="#402549"></path><path d="M363 291L393 380L488 329Z" fill="#56274d" stroke="#56274d"></path><path d="M488 329L393 380L537 374Z" fill="#402549" stroke="#402549"></path><path d="M705 339L726 218L638 332Z" fill="#802b48" stroke="#802b48"></path><path d="M561 94L468 133L529 234Z" fill="#402549" stroke="#402549"></path><path d="M367 212L363 291L488 329Z" fill="#6c294d" stroke="#6c294d"></path><path d="M561 94L529 234L596 209Z" fill="#a64a29" stroke="#a64a29"></path><path d="M367 212L488 329L529 234Z" fill="#802b48" stroke="#802b48"></path><path d="M502 517L587 422L537 374Z" fill="#6c294d" stroke="#6c294d"></path><path d="M587 422L602 505L660 411Z" fill="#6c294d" stroke="#6c294d"></path><path d="M838 410L781 273L705 339Z" fill="#191e37" stroke="#191e37"></path><path d="M719 71L561 94L596 209Z" fill="#2b2241" stroke="#2b2241"></path><path d="M468 133L367 212L529 234Z" fill="#6c294d" stroke="#6c294d"></path><path d="M393 380L502 517L537 374Z" fill="#191e37" stroke="#191e37"></path><path d="M734 463L705 339L660 411Z" fill="#56274d" stroke="#56274d"></path><path d="M705 339L781 273L726 218Z" fill="#0b182a" stroke="#0b182a"></path><path d="M602 505L734 463L660 411Z" fill="#6c294d" stroke="#6c294d"></path><path d="M481 0L407 107L468 133Z" fill="#a64a29" stroke="#a64a29"></path><path d="M468 133L407 107L367 212Z" fill="#913141" stroke="#913141"></path><path d="M781 273L775 177L726 218Z" fill="#402549" stroke="#402549"></path><path d="M726 218L719 71L596 209Z" fill="#00101c" stroke="#00101c"></path><path d="M407 107L337 160L367 212Z" fill="#56274d" stroke="#56274d"></path><path d="M367 212L270 276L363 291Z" fill="#9e3c36" stroke="#9e3c36"></path><path d="M393 380L371 493L502 517Z" fill="#56274d" stroke="#56274d"></path><path d="M297 419L371 493L393 380Z" fill="#00101c" stroke="#00101c"></path><path d="M297 419L393 380L363 291Z" fill="#913141" stroke="#913141"></path><path d="M775 177L719 71L726 218Z" fill="#00101c" stroke="#00101c"></path><path d="M561 94L481 0L468 133Z" fill="#9e3c36" stroke="#9e3c36"></path><path d="M270 276L297 419L363 291Z" fill="#913141" stroke="#913141"></path><path d="M337 160L270 276L367 212Z" fill="#00101c" stroke="#00101c"></path><path d="M734 463L838 410L705 339Z" fill="#00101c" stroke="#00101c"></path><path d="M781 273L900 192L775 177Z" fill="#191e37" stroke="#191e37"></path><path d="M502 517L620 600L602 505Z" fill="#0b182a" stroke="#0b182a"></path><path d="M602 505L723 600L734 463Z" fill="#0b182a" stroke="#0b182a"></path><path d="M734 463L814 474L838 410Z" fill="#2b2241" stroke="#2b2241"></path><path d="M484 600L620 600L502 517Z" fill="#2b2241" stroke="#2b2241"></path><path d="M432 600L484 600L502 517Z" fill="#402549" stroke="#402549"></path><path d="M661 0L615 0L561 94Z" fill="#6c294d" stroke="#6c294d"></path><path d="M723 600L814 474L734 463Z" fill="#802b48" stroke="#802b48"></path><path d="M615 0L481 0L561 94Z" fill="#2b2241" stroke="#2b2241"></path><path d="M407 107L302 103L337 160Z" fill="#802b48" stroke="#802b48"></path><path d="M719 71L661 0L561 94Z" fill="#191e37" stroke="#191e37"></path><path d="M775 177L772 63L719 71Z" fill="#00101c" stroke="#00101c"></path><path d="M719 71L760 0L661 0Z" fill="#2b2241" stroke="#2b2241"></path><path d="M900 61L772 63L775 177Z" fill="#2b2241" stroke="#2b2241"></path><path d="M321 524L432 600L371 493Z" fill="#6c294d" stroke="#6c294d"></path><path d="M371 493L432 600L502 517Z" fill="#191e37" stroke="#191e37"></path><path d="M297 419L321 524L371 493Z" fill="#913141" stroke="#913141"></path><path d="M293 0L302 103L407 107Z" fill="#913141" stroke="#913141"></path><path d="M337 160L231 169L270 276Z" fill="#56274d" stroke="#56274d"></path><path d="M481 0L424 0L407 107Z" fill="#9e3c36" stroke="#9e3c36"></path><path d="M620 600L723 600L602 505Z" fill="#913141" stroke="#913141"></path><path d="M900 410L900 300L838 410Z" fill="#802b48" stroke="#802b48"></path><path d="M838 410L900 300L781 273Z" fill="#0b182a" stroke="#0b182a"></path><path d="M270 276L206 323L297 419Z" fill="#00101c" stroke="#00101c"></path><path d="M297 419L201 427L321 524Z" fill="#00101c" stroke="#00101c"></path><path d="M231 169L206 323L270 276Z" fill="#a64a29" stroke="#a64a29"></path><path d="M302 103L231 169L337 160Z" fill="#191e37" stroke="#191e37"></path><path d="M900 494L838 410L814 474Z" fill="#2b2241" stroke="#2b2241"></path><path d="M900 494L900 410L838 410Z" fill="#0b182a" stroke="#0b182a"></path><path d="M900 300L900 192L781 273Z" fill="#2b2241" stroke="#2b2241"></path><path d="M900 0L760 0L772 63Z" fill="#191e37" stroke="#191e37"></path><path d="M772 63L760 0L719 71Z" fill="#913141" stroke="#913141"></path><path d="M206 323L201 427L297 419Z" fill="#a64a29" stroke="#a64a29"></path><path d="M198 600L304 600L321 524Z" fill="#402549" stroke="#402549"></path><path d="M321 524L304 600L432 600Z" fill="#6c294d" stroke="#6c294d"></path><path d="M827 600L900 494L814 474Z" fill="#2b2241" stroke="#2b2241"></path><path d="M723 600L827 600L814 474Z" fill="#9e3c36" stroke="#9e3c36"></path><path d="M424 0L293 0L407 107Z" fill="#a64a29" stroke="#a64a29"></path><path d="M302 103L160 91L231 169Z" fill="#802b48" stroke="#802b48"></path><path d="M900 192L900 61L775 177Z" fill="#9e3c36" stroke="#9e3c36"></path><path d="M105 519L180 517L201 427Z" fill="#a64a29" stroke="#a64a29"></path><path d="M201 427L180 517L321 524Z" fill="#402549" stroke="#402549"></path><path d="M293 0L228 0L302 103Z" fill="#802b48" stroke="#802b48"></path><path d="M93 207L111 337L206 323Z" fill="#402549" stroke="#402549"></path><path d="M206 323L111 337L201 427Z" fill="#913141" stroke="#913141"></path><path d="M93 207L206 323L231 169Z" fill="#191e37" stroke="#191e37"></path><path d="M228 0L160 91L302 103Z" fill="#56274d" stroke="#56274d"></path><path d="M827 600L900 600L900 494Z" fill="#191e37" stroke="#191e37"></path><path d="M900 61L900 0L772 63Z" fill="#191e37" stroke="#191e37"></path><path d="M180 517L198 600L321 524Z" fill="#56274d" stroke="#56274d"></path><path d="M100 600L198 600L180 517Z" fill="#9e3c36" stroke="#9e3c36"></path><path d="M0 373L96 403L111 337Z" fill="#56274d" stroke="#56274d"></path><path d="M111 337L96 403L201 427Z" fill="#2b2241" stroke="#2b2241"></path><path d="M160 91L93 207L231 169Z" fill="#a64a29" stroke="#a64a29"></path><path d="M113 0L112 103L160 91Z" fill="#9e3c36" stroke="#9e3c36"></path><path d="M160 91L112 103L93 207Z" fill="#6c294d" stroke="#6c294d"></path><path d="M96 403L105 519L201 427Z" fill="#00101c" stroke="#00101c"></path><path d="M228 0L113 0L160 91Z" fill="#00101c" stroke="#00101c"></path><path d="M0 169L0 268L93 207Z" fill="#6c294d" stroke="#6c294d"></path><path d="M0 600L100 600L105 519Z" fill="#9e3c36" stroke="#9e3c36"></path><path d="M105 519L100 600L180 517Z" fill="#a64a29" stroke="#a64a29"></path><path d="M0 169L93 207L112 103Z" fill="#2b2241" stroke="#2b2241"></path><path d="M93 207L0 268L111 337Z" fill="#6c294d" stroke="#6c294d"></path><path d="M96 403L0 506L105 519Z" fill="#a64a29" stroke="#a64a29"></path><path d="M0 268L0 373L111 337Z" fill="#0b182a" stroke="#0b182a"></path><path d="M0 71L0 169L112 103Z" fill="#a64a29" stroke="#a64a29"></path><path d="M0 373L0 506L96 403Z" fill="#0b182a" stroke="#0b182a"></path><path d="M113 0L0 71L112 103Z" fill="#a64a29" stroke="#a64a29"></path><path d="M0 506L0 600L105 519Z" fill="#9e3c36" stroke="#9e3c36"></path><path d="M113 0L0 0L0 71Z" fill="#9e3c36" stroke="#9e3c36"></path></g></svg>